<?xml version="1.0" standalone="no"?>
<!DOCTYPE svg PUBLIC "-//W3C//DTD SVG 20010904//EN"
 "http://www.w3.org/TR/2001/REC-SVG-20010904/DTD/svg10.dtd">
<svg version="1.0" xmlns="http://www.w3.org/2000/svg"
 width="1200.000000pt" height="1200.000000pt" viewBox="0 0 1200.000000 1200.000000"
 preserveAspectRatio="xMidYMid meet">
<metadata>
Created by potrace 1.11, written by Peter Selinger 2001-2013
</metadata>
<g transform="translate(0.000000,1200.000000) scale(0.100000,-0.100000)"
fill="#000000" stroke="none">
<path d="M0 6000 l0 -6000 6000 0 6000 0 0 6000 0 6000 -6000 0 -6000 0 0
-6000z m3573 1069 c12 -7 25 -17 29 -23 4 -6 8 -165 8 -353 l0 -343 30 -92
c26 -82 28 -95 15 -114 -15 -24 -53 -34 -126 -34 -105 0 -130 33 -105 143 13
55 16 134 16 367 0 282 -1 301 -22 355 -24 63 -19 85 23 96 39 11 109 10 132
-2z m4076 -13 c13 -14 16 -64 19 -389 1 -204 7 -400 12 -433 12 -75 8 -89 -32
-103 -42 -15 -71 -14 -116 4 -35 14 -43 14 -101 -5 -156 -50 -270 -11 -331
113 -69 142 -43 349 58 453 51 52 110 75 209 82 113 7 118 14 108 155 -5 86
-4 105 9 116 39 33 134 37 165 7z m-5447 -21 c77 -16 113 -37 134 -76 26 -52
12 -119 -25 -119 -11 0 -54 17 -97 37 -61 29 -94 38 -146 41 -66 4 -69 3 -103
-31 -29 -29 -35 -42 -35 -77 0 -36 6 -48 34 -75 19 -17 60 -42 93 -55 251
-100 327 -173 327 -315 0 -110 -53 -189 -159 -237 -43 -19 -67 -22 -165 -22
-82 0 -132 5 -174 18 -95 28 -152 101 -130 164 18 51 36 51 141 -3 78 -39 110
-50 159 -53 105 -7 164 38 164 124 0 56 -51 98 -196 162 -149 66 -204 105
-235 168 -31 66 -32 162 -1 221 61 116 229 168 414 128z m3057 -3 c41 -9 57
-43 46 -98 -9 -48 -34 -56 -126 -38 -89 17 -179 18 -212 3 -35 -16 -47 -49
-47 -129 0 -126 20 -141 153 -122 95 14 122 6 135 -41 11 -39 5 -84 -12 -94
-6 -4 -55 -10 -109 -13 -87 -5 -100 -9 -123 -31 -29 -29 -40 -86 -43 -216 -1
-48 -6 -95 -12 -104 -13 -25 -74 -42 -123 -36 -72 10 -93 65 -61 157 21 60 21
557 0 645 -19 78 -19 82 5 95 40 21 457 38 529 22z m-2235 -271 c130 -57 196
-207 167 -379 -27 -168 -127 -270 -281 -288 -105 -12 -236 40 -291 117 -47 67
-70 213 -49 322 26 141 109 224 250 251 49 9 160 -3 204 -23z m1290 0 c130
-57 196 -207 167 -379 -27 -168 -127 -270 -281 -288 -105 -12 -236 40 -291
117 -47 67 -70 213 -49 322 26 141 109 224 250 251 49 9 160 -3 204 -23z
m1600 0 c130 -57 196 -207 167 -379 -27 -168 -127 -270 -281 -288 -105 -12
-236 40 -291 117 -47 67 -70 213 -49 322 26 141 109 224 250 251 49 9 160 -3
204 -23z m790 0 c130 -57 196 -207 167 -379 -27 -168 -127 -270 -281 -288
-105 -12 -236 40 -291 117 -47 67 -70 213 -49 322 26 141 109 224 250 251 49
9 160 -3 204 -23z m4321 -1664 l0 -1347 -1350 2 -1350 3 0 1335 c0 734 1 1341
3 1348 3 10 278 12 1351 10 l1346 -3 0 -1348z"/>
<path d="M7294 6661 c-19 -12 -39 -38 -53 -72 -20 -46 -23 -65 -19 -153 6
-157 48 -216 152 -216 55 0 101 35 116 88 5 20 10 88 10 149 0 131 -16 185
-61 208 -39 21 -108 19 -145 -4z"/>
<path d="M2814 6665 c-17 -9 -42 -35 -55 -58 -22 -38 -24 -54 -24 -162 0 -106
3 -125 23 -162 29 -55 65 -78 122 -78 53 0 89 23 116 74 16 28 19 57 19 155 0
107 -3 126 -23 163 -12 24 -33 50 -47 59 -36 23 -95 27 -131 9z"/>
<path d="M4104 6665 c-17 -9 -42 -35 -55 -58 -22 -38 -24 -54 -24 -162 0 -106
3 -125 23 -162 29 -55 65 -78 122 -78 53 0 89 23 116 74 16 28 19 57 19 155 0
107 -3 126 -23 163 -12 24 -33 50 -47 59 -36 23 -95 27 -131 9z"/>
<path d="M5704 6665 c-17 -9 -42 -35 -55 -58 -22 -38 -24 -54 -24 -162 0 -106
3 -125 23 -162 29 -55 65 -78 122 -78 53 0 89 23 116 74 16 28 19 57 19 155 0
107 -3 126 -23 163 -12 24 -33 50 -47 59 -36 23 -95 27 -131 9z"/>
<path d="M6494 6665 c-17 -9 -42 -35 -55 -58 -22 -38 -24 -54 -24 -162 0 -106
3 -125 23 -162 29 -55 65 -78 122 -78 53 0 89 23 116 74 16 28 19 57 19 155 0
107 -3 126 -23 163 -12 24 -33 50 -47 59 -36 23 -95 27 -131 9z"/>
<path d="M9803 6218 c-18 -5 -35 -13 -38 -18 -3 -6 -26 -10 -50 -10 -37 0 -47
-5 -74 -35 -38 -44 -44 -97 -16 -141 11 -18 11 -23 0 -35 -13 -14 -18 -37 -16
-71 2 -27 49 -76 81 -83 17 -4 30 -12 30 -19 0 -18 33 -46 59 -51 11 -2 31
-16 43 -30 24 -27 48 -33 84 -21 18 5 24 0 41 -40 30 -70 18 -143 -36 -213
l-18 -23 -49 35 c-150 106 -329 154 -411 110 -73 -40 -306 -377 -504 -729
-168 -299 -339 -679 -339 -752 0 -11 9 -31 21 -46 16 -20 29 -26 60 -26 140 0
591 226 1054 528 239 156 402 274 420 305 22 37 21 137 -3 214 -23 73 -77 172
-132 242 l-40 50 25 17 c66 43 150 55 212 29 61 -26 74 -42 67 -86 -6 -33 -3
-42 25 -69 17 -17 31 -39 31 -49 0 -19 40 -61 58 -61 7 0 12 -9 12 -21 0 -12
15 -36 34 -55 38 -38 77 -44 113 -19 20 14 25 14 56 -1 50 -24 98 -12 137 32
23 27 31 44 29 68 -2 17 5 45 14 63 22 42 21 81 -3 121 -11 18 -20 44 -20 58
0 31 -50 84 -79 84 -12 0 -21 6 -21 13 0 20 -53 66 -86 76 -16 4 -42 4 -57 0
-23 -6 -28 -5 -23 7 3 9 6 23 6 32 0 13 10 17 45 17 59 0 107 44 107 98 0 27
5 38 20 43 26 8 58 62 58 98 0 16 -9 44 -21 63 -17 27 -19 37 -9 48 34 41 -3
140 -64 169 -42 20 -59 20 -97 1 -20 -11 -35 -13 -47 -6 -32 17 -79 19 -110 4
-29 -14 -66 -69 -56 -85 3 -4 -11 -8 -30 -8 -44 0 -95 -43 -98 -81 -2 -21 -10
-29 -35 -37 l-33 -10 6 37 c7 46 -13 91 -56 122 -16 12 -33 35 -39 50 -11 32
-48 60 -83 61 -12 1 -31 8 -40 16 -24 20 -78 30 -115 20z m70 -114 c16 -21 26
-25 48 -20 25 5 29 2 29 -17 0 -32 20 -56 55 -66 32 -8 35 -24 20 -96 -5 -22
-1 -36 14 -53 27 -32 34 -73 26 -140 l-7 -56 -24 51 c-30 63 -87 116 -115 108
-10 -4 -19 -2 -19 4 0 23 -33 42 -61 36 -26 -6 -29 -4 -29 19 0 31 -29 49 -70
43 -43 -7 -44 3 -6 38 41 38 39 68 -5 91 -48 24 -34 63 15 44 21 -8 30 -5 53
15 36 31 50 31 76 -1z m591 -79 c21 -32 53 -32 87 1 49 47 92 4 45 -45 -35
-36 -33 -54 9 -92 19 -18 35 -36 35 -41 0 -11 -47 -10 -68 1 -23 12 -59 -3
-67 -28 -4 -15 2 -32 24 -58 17 -21 31 -41 31 -45 0 -13 -53 -8 -80 7 -39 22
-69 19 -82 -10 -8 -19 -8 -31 0 -50 33 -71 3 -98 -103 -92 -38 2 -94 -2 -125
-9 -30 -7 -56 -11 -58 -9 -2 2 3 16 11 32 26 49 43 130 46 221 1 29 32 29 71
0 25 -18 33 -20 55 -10 30 14 31 28 8 93 -10 26 -14 51 -11 55 4 3 23 -3 43
-15 66 -39 111 -18 94 43 -21 71 1 103 35 51z m-814 -562 c131 -52 240 -140
319 -258 76 -114 119 -253 93 -301 -6 -11 -31 -34 -56 -52 l-45 -33 -20 38
c-37 73 -90 114 -164 128 -64 12 -104 -45 -55 -79 12 -9 35 -16 50 -16 16 0
37 -9 48 -20 27 -27 63 -101 53 -110 -4 -5 -84 -58 -178 -120 -158 -103 -171
-110 -183 -93 -7 10 -26 37 -42 59 -61 89 -150 126 -176 75 -13 -26 0 -61 23
-61 21 0 71 -49 97 -96 l25 -44 -42 -27 c-196 -124 -578 -310 -676 -329 l-31
-6 24 68 c26 76 105 252 140 314 l23 40 34 -23 c19 -12 43 -41 55 -62 21 -42
54 -56 80 -35 42 36 -16 139 -112 196 -16 10 -15 16 25 90 24 43 84 147 133
231 l89 152 47 -20 c66 -29 108 -63 137 -114 31 -52 58 -64 86 -39 26 23 24
39 -12 96 -39 60 -98 111 -155 135 -24 10 -44 21 -44 24 0 8 136 205 184 266
23 28 48 53 56 55 32 9 107 -4 170 -29z m781 -6 c35 -20 37 -20 74 -3 44 21
68 13 73 -25 5 -35 21 -49 53 -49 26 0 29 -3 29 -35 0 -26 6 -39 25 -51 31
-20 31 -25 -1 -63 -20 -24 -24 -37 -19 -64 9 -48 -19 -59 -43 -17 -26 46 -59
50 -91 11 -14 -17 -29 -31 -33 -31 -5 0 -7 18 -6 40 1 45 -8 60 -41 63 -17 1
-21 8 -21 33 0 30 -21 64 -39 64 -5 0 -6 11 -4 23 5 25 -35 75 -87 109 -25 17
-24 17 35 16 41 0 71 -7 96 -21z"/>
</g>
</svg>
